<?xml version="1.0" standalone="no"?>
<!DOCTYPE svg PUBLIC "-//W3C//DTD SVG 20010904//EN"
 "http://www.w3.org/TR/2001/REC-SVG-20010904/DTD/svg10.dtd">
<svg version="1.0" xmlns="http://www.w3.org/2000/svg"
 width="256.000000pt" height="256.000000pt" viewBox="0 0 256.000000 256.000000"
 preserveAspectRatio="xMidYMid meet">

<g transform="translate(0.000000,256.000000) scale(0.100000,-0.100000)"
fill="#000000" stroke="none">
<path d="M1150 2029 c-338 -44 -623 -260 -716 -545 -25 -77 -29 -104 -29 -204
0 -100 4 -127 29 -204 34 -104 101 -211 181 -290 57 -56 58 -57 51 -103 -3
-25 -17 -66 -31 -91 l-25 -44 38 6 c20 4 69 22 108 42 l70 35 56 -26 c31 -14
101 -37 155 -52 134 -35 335 -37 466 -5 311 77 538 270 623 528 25 77 29 104
29 204 0 100 -4 127 -29 204 -120 366 -541 601 -976 545z m601 -331 c125 -37
242 -275 225 -457 -15 -170 -125 -352 -229 -380 -30 -8 -174 -11 -487 -9 -511
3 -488 -1 -560 96 -121 161 -149 343 -81 523 42 110 125 210 188 227 56 15
895 15 944 0z"/>
<path d="M875 1411 c-39 -23 -67 -66 -63 -94 3 -19 9 -22 43 -20 49 3 148 3
195 0 32 -2 35 1 38 27 9 78 -133 136 -213 87z"/>
<path d="M1535 1411 c-47 -29 -67 -56 -63 -88 3 -30 0 -30 113 -22 28 2 73 -1
102 -5 50 -8 52 -8 58 17 8 32 -23 80 -65 102 -40 21 -109 19 -145 -4z"/>
<path d="M1190 1186 c0 -25 50 -56 90 -56 23 0 48 8 64 21 45 35 27 68 -18 34
-11 -8 -32 -15 -46 -15 -14 0 -35 7 -46 15 -24 18 -44 19 -44 1z"/>
<path d="M252 1828 c-8 -8 -12 -58 -12 -160 l0 -149 40 32 40 32 0 117 c0 118
-6 140 -40 140 -9 0 -21 -5 -28 -12z"/>
<path d="M2252 1828 c-8 -8 -12 -51 -12 -128 l0 -117 40 -32 40 -32 0 149 c0
151 -5 172 -40 172 -9 0 -21 -5 -28 -12z"/>
<path d="M359 1550 c-44 -23 -94 -78 -115 -128 -9 -20 -18 -73 -21 -118 -7
-103 14 -179 64 -235 34 -37 109 -86 119 -76 2 2 -5 30 -16 61 -33 97 -45 213
-31 310 6 47 20 110 31 142 11 31 20 59 20 61 0 7 -16 1 -51 -17z"/>
<path d="M2150 1567 c0 -2 9 -30 20 -61 11 -32 25 -95 31 -142 14 -97 2 -213
-31 -310 -11 -31 -18 -59 -16 -61 10 -10 85 39 119 76 50 56 71 132 64 235 -5
86 -21 133 -58 180 -30 38 -129 101 -129 83z"/>
</g>
</svg>
